<svg width="1280" height="360" viewBox="0 0 1280 360" fill="none" xmlns="http://www.w3.org/2000/svg" role="img" aria-labelledby="banner-title banner-desc">
  <title id="banner-title">Hao Peng profile banner</title>
  <desc id="banner-desc">Engineering themed banner for Hao Peng, AI Agent Engineer and RAG Engineer.</desc>
  <defs>
    <linearGradient id="bg" x1="64" y1="32" x2="1216" y2="328" gradientUnits="userSpaceOnUse">
      <stop stop-color="#111827" />
      <stop offset="0.55" stop-color="#18242C" />
      <stop offset="1" stop-color="#10171E" />
    </linearGradient>
    <pattern id="grid" width="40" height="40" patternUnits="userSpaceOnUse">
      <path d="M40 0H0V40" stroke="#243341" stroke-width="1" />
    </pattern>
    <linearGradient id="accent-line" x1="0" y1="0" x2="1" y2="0">
      <stop stop-color="#2DD4BF" />
      <stop offset="0.5" stop-color="#F59E0B" />
      <stop offset="1" stop-color="#FB7185" />
    </linearGradient>
  </defs>

  <rect x="8" y="8" width="1264" height="344" rx="28" fill="url(#bg)" />
  <rect x="8" y="8" width="1264" height="344" rx="28" fill="url(#grid)" opacity="0.32" />
  <path d="M52 76H1228" stroke="url(#accent-line)" stroke-width="3" stroke-linecap="round" opacity="0.9" />
  <path d="M840 66L1098 66" stroke="#2A3945" stroke-width="14" stroke-linecap="round" />
  <path d="M915 66L1200 66" stroke="#2A3945" stroke-width="14" stroke-linecap="round" />
  <path d="M920 138L1206 138" stroke="#2A3945" stroke-width="12" stroke-linecap="round" />
  <path d="M880 208L1206 208" stroke="#2A3945" stroke-width="12" stroke-linecap="round" />
  <path d="M840 278L1168 278" stroke="#2A3945" stroke-width="12" stroke-linecap="round" />

  <text x="72" y="120" fill="#F8FAFC" font-family="Segoe UI, Arial, sans-serif" font-size="52" font-weight="700">Hao Peng</text>
  <text x="72" y="164" fill="#DCE8F1" font-family="Segoe UI, Arial, sans-serif" font-size="24" font-weight="600">AI Agent Engineer | RAG Engineer | Full-stack Developer</text>
  <text x="72" y="214" fill="#B9C7D3" font-family="Segoe UI, Arial, sans-serif" font-size="22">Evidence-grounded LLM applications for document intelligence</text>
  <text x="72" y="246" fill="#B9C7D3" font-family="Segoe UI, Arial, sans-serif" font-size="22">review automation, and reliable engineering delivery</text>

  <rect x="72" y="282" width="170" height="38" rx="19" fill="#123238" />
  <rect x="258" y="282" width="146" height="38" rx="19" fill="#3A2B14" />
  <rect x="420" y="282" width="158" height="38" rx="19" fill="#3B1F2A" />
  <rect x="594" y="282" width="172" height="38" rx="19" fill="#1E2D39" />
  <text x="102" y="307" fill="#7EE7D4" font-family="Segoe UI, Arial, sans-serif" font-size="16" font-weight="600">Agent Workflows</text>
  <text x="300" y="307" fill="#F6C66E" font-family="Segoe UI, Arial, sans-serif" font-size="16" font-weight="600">RAG Pipelines</text>
  <text x="455" y="307" fill="#FDA4AF" font-family="Segoe UI, Arial, sans-serif" font-size="16" font-weight="600">Claim Guardrails</text>
  <text x="624" y="307" fill="#A5D8FF" font-family="Segoe UI, Arial, sans-serif" font-size="16" font-weight="600">Full-stack Delivery</text>

  <rect x="860" y="92" width="328" height="58" rx="16" fill="#16232D" stroke="#284251" />
  <rect x="860" y="162" width="328" height="58" rx="16" fill="#16232D" stroke="#284251" />
  <rect x="860" y="232" width="328" height="58" rx="16" fill="#16232D" stroke="#284251" />
  <circle cx="892" cy="121" r="8" fill="#2DD4BF" />
  <circle cx="892" cy="191" r="8" fill="#F59E0B" />
  <circle cx="892" cy="261" r="8" fill="#FB7185" />
  <text x="916" y="116" fill="#E5EDF5" font-family="Segoe UI, Arial, sans-serif" font-size="18" font-weight="600">Grounded Agents</text>
  <text x="916" y="135" fill="#9EB0BF" font-family="Segoe UI, Arial, sans-serif" font-size="14">Tool calling, verification, and reliable orchestration</text>
  <text x="916" y="186" fill="#E5EDF5" font-family="Segoe UI, Arial, sans-serif" font-size="18" font-weight="600">Evidence-aware RAG</text>
  <text x="916" y="205" fill="#9EB0BF" font-family="Segoe UI, Arial, sans-serif" font-size="14">Hybrid retrieval, reranking, and citation binding</text>
  <text x="916" y="256" fill="#E5EDF5" font-family="Segoe UI, Arial, sans-serif" font-size="18" font-weight="600">Document Intelligence</text>
  <text x="916" y="275" fill="#9EB0BF" font-family="Segoe UI, Arial, sans-serif" font-size="14">Engineering review and report automation workflows</text>
</svg>
